<mxfile host="app.diagrams.net" modified="2024-06-08T18:21:13.874Z" agent="Mozilla/5.0 (Macintosh; Intel Mac OS X 10_15_7) AppleWebKit/537.36 (KHTML, like Gecko) Chrome/125.0.0.0 Safari/537.36" etag="QWe9DhiJ7x9HKKQ26FZ9" version="24.5.2" type="device">
  <diagram name="Page-1" id="ymWjuOnNcvjY_NaKEEle">
    <mxGraphModel dx="1632" dy="1079" grid="1" gridSize="10" guides="1" tooltips="1" connect="1" arrows="1" fold="1" page="1" pageScale="1" pageWidth="850" pageHeight="1100" math="0" shadow="0">
      <root>
        <mxCell id="0" />
        <mxCell id="1" parent="0" />
        <mxCell id="BDH_xcMSQvleZG9NHGva-3" value="" style="edgeStyle=orthogonalEdgeStyle;rounded=0;orthogonalLoop=1;jettySize=auto;html=1;" edge="1" parent="1" source="BDH_xcMSQvleZG9NHGva-1" target="BDH_xcMSQvleZG9NHGva-2">
          <mxGeometry relative="1" as="geometry" />
        </mxCell>
        <mxCell id="BDH_xcMSQvleZG9NHGva-1" value="Application server" style="whiteSpace=wrap;html=1;fillColor=#dae8fc;strokeColor=#6c8ebf;" vertex="1" parent="1">
          <mxGeometry x="137" y="281" width="120" height="60" as="geometry" />
        </mxCell>
        <mxCell id="BDH_xcMSQvleZG9NHGva-5" value="" style="edgeStyle=orthogonalEdgeStyle;rounded=0;orthogonalLoop=1;jettySize=auto;html=1;" edge="1" parent="1" source="BDH_xcMSQvleZG9NHGva-2" target="BDH_xcMSQvleZG9NHGva-4">
          <mxGeometry relative="1" as="geometry" />
        </mxCell>
        <mxCell id="BDH_xcMSQvleZG9NHGva-2" value="" style="sketch=0;points=[[0,0,0],[0.25,0,0],[0.5,0,0],[0.75,0,0],[1,0,0],[0,1,0],[0.25,1,0],[0.5,1,0],[0.75,1,0],[1,1,0],[0,0.25,0],[0,0.5,0],[0,0.75,0],[1,0.25,0],[1,0.5,0],[1,0.75,0]];outlineConnect=0;fontColor=#232F3E;fillColor=#E7157B;strokeColor=#ffffff;dashed=0;verticalLabelPosition=bottom;verticalAlign=top;align=center;html=1;fontSize=12;fontStyle=0;aspect=fixed;shape=mxgraph.aws4.resourceIcon;resIcon=mxgraph.aws4.sqs;" vertex="1" parent="1">
          <mxGeometry x="337" y="282" width="58" height="58" as="geometry" />
        </mxCell>
        <mxCell id="BDH_xcMSQvleZG9NHGva-10" value="" style="edgeStyle=orthogonalEdgeStyle;rounded=0;orthogonalLoop=1;jettySize=auto;html=1;" edge="1" parent="1" source="BDH_xcMSQvleZG9NHGva-4" target="BDH_xcMSQvleZG9NHGva-8">
          <mxGeometry relative="1" as="geometry" />
        </mxCell>
        <mxCell id="BDH_xcMSQvleZG9NHGva-4" value="" style="outlineConnect=0;dashed=0;verticalLabelPosition=bottom;verticalAlign=top;align=center;html=1;shape=mxgraph.aws3.lambda_function;fillColor=#F58534;gradientColor=none;" vertex="1" parent="1">
          <mxGeometry x="462" y="288" width="50" height="46" as="geometry" />
        </mxCell>
        <mxCell id="BDH_xcMSQvleZG9NHGva-7" value="Service 1" style="whiteSpace=wrap;html=1;fillColor=#dae8fc;strokeColor=#6c8ebf;" vertex="1" parent="1">
          <mxGeometry x="597" y="181" width="120" height="60" as="geometry" />
        </mxCell>
        <mxCell id="BDH_xcMSQvleZG9NHGva-8" value="Service 2" style="whiteSpace=wrap;html=1;fillColor=#dae8fc;strokeColor=#6c8ebf;" vertex="1" parent="1">
          <mxGeometry x="597" y="281" width="120" height="60" as="geometry" />
        </mxCell>
        <mxCell id="BDH_xcMSQvleZG9NHGva-9" value="Service 3" style="whiteSpace=wrap;html=1;fillColor=#dae8fc;strokeColor=#6c8ebf;" vertex="1" parent="1">
          <mxGeometry x="597" y="381" width="120" height="60" as="geometry" />
        </mxCell>
        <mxCell id="BDH_xcMSQvleZG9NHGva-11" value="" style="edgeStyle=none;orthogonalLoop=1;jettySize=auto;html=1;rounded=0;" edge="1" parent="1">
          <mxGeometry width="100" relative="1" as="geometry">
            <mxPoint x="487" y="281" as="sourcePoint" />
            <mxPoint x="597" y="210.5" as="targetPoint" />
            <Array as="points">
              <mxPoint x="487" y="211" />
            </Array>
          </mxGeometry>
        </mxCell>
        <mxCell id="BDH_xcMSQvleZG9NHGva-13" value="" style="edgeStyle=none;orthogonalLoop=1;jettySize=auto;html=1;rounded=0;exitX=0.5;exitY=1;exitDx=0;exitDy=0;exitPerimeter=0;" edge="1" parent="1" source="BDH_xcMSQvleZG9NHGva-4">
          <mxGeometry width="100" relative="1" as="geometry">
            <mxPoint x="357" y="411" as="sourcePoint" />
            <mxPoint x="597" y="410.5" as="targetPoint" />
            <Array as="points">
              <mxPoint x="487" y="411" />
            </Array>
          </mxGeometry>
        </mxCell>
        <mxCell id="BDH_xcMSQvleZG9NHGva-14" value="SQS" style="text;html=1;align=center;verticalAlign=middle;resizable=0;points=[];autosize=1;strokeColor=none;fillColor=none;" vertex="1" parent="1">
          <mxGeometry x="342" y="349" width="50" height="30" as="geometry" />
        </mxCell>
        <mxCell id="BDH_xcMSQvleZG9NHGva-15" value="lambda" style="text;html=1;align=center;verticalAlign=middle;resizable=0;points=[];autosize=1;strokeColor=none;fillColor=none;" vertex="1" parent="1">
          <mxGeometry x="417" y="334" width="60" height="30" as="geometry" />
        </mxCell>
        <mxCell id="BDH_xcMSQvleZG9NHGva-16" value="&lt;font style=&quot;font-size: 18px;&quot;&gt;Content based messaging system&lt;/font&gt;" style="text;html=1;align=center;verticalAlign=middle;resizable=0;points=[];autosize=1;strokeColor=none;fillColor=none;imageAlign=center;" vertex="1" parent="1">
          <mxGeometry x="305" y="70" width="290" height="40" as="geometry" />
        </mxCell>
        <mxCell id="BDH_xcMSQvleZG9NHGva-18" value="main problem of this approach is lambda function might not handle entire load" style="text;html=1;align=center;verticalAlign=middle;resizable=0;points=[];autosize=1;strokeColor=none;fillColor=none;" vertex="1" parent="1">
          <mxGeometry x="212" y="461" width="440" height="30" as="geometry" />
        </mxCell>
        <mxCell id="BDH_xcMSQvleZG9NHGva-32" value="" style="edgeStyle=orthogonalEdgeStyle;rounded=0;orthogonalLoop=1;jettySize=auto;html=1;" edge="1" parent="1" source="BDH_xcMSQvleZG9NHGva-33">
          <mxGeometry relative="1" as="geometry">
            <mxPoint x="337" y="730" as="targetPoint" />
          </mxGeometry>
        </mxCell>
        <mxCell id="BDH_xcMSQvleZG9NHGva-33" value="Application server" style="whiteSpace=wrap;html=1;fillColor=#dae8fc;strokeColor=#6c8ebf;" vertex="1" parent="1">
          <mxGeometry x="137" y="700" width="120" height="60" as="geometry" />
        </mxCell>
        <mxCell id="BDH_xcMSQvleZG9NHGva-38" value="Service 1" style="whiteSpace=wrap;html=1;fillColor=#dae8fc;strokeColor=#6c8ebf;" vertex="1" parent="1">
          <mxGeometry x="630" y="599" width="120" height="60" as="geometry" />
        </mxCell>
        <mxCell id="BDH_xcMSQvleZG9NHGva-39" value="Service 2" style="whiteSpace=wrap;html=1;fillColor=#dae8fc;strokeColor=#6c8ebf;" vertex="1" parent="1">
          <mxGeometry x="630" y="700" width="120" height="60" as="geometry" />
        </mxCell>
        <mxCell id="BDH_xcMSQvleZG9NHGva-40" value="Service 3" style="whiteSpace=wrap;html=1;fillColor=#dae8fc;strokeColor=#6c8ebf;" vertex="1" parent="1">
          <mxGeometry x="630" y="798" width="120" height="60" as="geometry" />
        </mxCell>
        <mxCell id="BDH_xcMSQvleZG9NHGva-43" value="SNS" style="text;html=1;align=center;verticalAlign=middle;resizable=0;points=[];autosize=1;strokeColor=none;fillColor=none;" vertex="1" parent="1">
          <mxGeometry x="320" y="769" width="50" height="30" as="geometry" />
        </mxCell>
        <mxCell id="BDH_xcMSQvleZG9NHGva-60" value="" style="edgeStyle=orthogonalEdgeStyle;rounded=0;orthogonalLoop=1;jettySize=auto;html=1;" edge="1" parent="1" source="BDH_xcMSQvleZG9NHGva-45" target="BDH_xcMSQvleZG9NHGva-54">
          <mxGeometry relative="1" as="geometry" />
        </mxCell>
        <mxCell id="BDH_xcMSQvleZG9NHGva-45" value="" style="sketch=0;points=[[0,0,0],[0.25,0,0],[0.5,0,0],[0.75,0,0],[1,0,0],[0,1,0],[0.25,1,0],[0.5,1,0],[0.75,1,0],[1,1,0],[0,0.25,0],[0,0.5,0],[0,0.75,0],[1,0.25,0],[1,0.5,0],[1,0.75,0]];outlineConnect=0;fontColor=#232F3E;fillColor=#E7157B;strokeColor=#ffffff;dashed=0;verticalLabelPosition=bottom;verticalAlign=top;align=center;html=1;fontSize=12;fontStyle=0;aspect=fixed;shape=mxgraph.aws4.resourceIcon;resIcon=mxgraph.aws4.sns;fontFamily=Helvetica;" vertex="1" parent="1">
          <mxGeometry x="337" y="700" width="60" height="60" as="geometry" />
        </mxCell>
        <mxCell id="BDH_xcMSQvleZG9NHGva-53" value="" style="edgeStyle=orthogonalEdgeStyle;rounded=0;orthogonalLoop=1;jettySize=auto;html=1;" edge="1" parent="1" source="BDH_xcMSQvleZG9NHGva-52" target="BDH_xcMSQvleZG9NHGva-38">
          <mxGeometry relative="1" as="geometry" />
        </mxCell>
        <mxCell id="BDH_xcMSQvleZG9NHGva-52" value="" style="sketch=0;points=[[0,0,0],[0.25,0,0],[0.5,0,0],[0.75,0,0],[1,0,0],[0,1,0],[0.25,1,0],[0.5,1,0],[0.75,1,0],[1,1,0],[0,0.25,0],[0,0.5,0],[0,0.75,0],[1,0.25,0],[1,0.5,0],[1,0.75,0]];outlineConnect=0;fontColor=#232F3E;fillColor=#E7157B;strokeColor=#ffffff;dashed=0;verticalLabelPosition=bottom;verticalAlign=top;align=center;html=1;fontSize=12;fontStyle=0;aspect=fixed;shape=mxgraph.aws4.resourceIcon;resIcon=mxgraph.aws4.sqs;" vertex="1" parent="1">
          <mxGeometry x="502" y="600" width="58" height="58" as="geometry" />
        </mxCell>
        <mxCell id="BDH_xcMSQvleZG9NHGva-55" value="" style="edgeStyle=orthogonalEdgeStyle;rounded=0;orthogonalLoop=1;jettySize=auto;html=1;" edge="1" parent="1" source="BDH_xcMSQvleZG9NHGva-54" target="BDH_xcMSQvleZG9NHGva-39">
          <mxGeometry relative="1" as="geometry" />
        </mxCell>
        <mxCell id="BDH_xcMSQvleZG9NHGva-54" value="" style="sketch=0;points=[[0,0,0],[0.25,0,0],[0.5,0,0],[0.75,0,0],[1,0,0],[0,1,0],[0.25,1,0],[0.5,1,0],[0.75,1,0],[1,1,0],[0,0.25,0],[0,0.5,0],[0,0.75,0],[1,0.25,0],[1,0.5,0],[1,0.75,0]];outlineConnect=0;fontColor=#232F3E;fillColor=#E7157B;strokeColor=#ffffff;dashed=0;verticalLabelPosition=bottom;verticalAlign=top;align=center;html=1;fontSize=12;fontStyle=0;aspect=fixed;shape=mxgraph.aws4.resourceIcon;resIcon=mxgraph.aws4.sqs;" vertex="1" parent="1">
          <mxGeometry x="502" y="701" width="58" height="58" as="geometry" />
        </mxCell>
        <mxCell id="BDH_xcMSQvleZG9NHGva-57" value="" style="edgeStyle=orthogonalEdgeStyle;rounded=0;orthogonalLoop=1;jettySize=auto;html=1;" edge="1" parent="1" source="BDH_xcMSQvleZG9NHGva-56" target="BDH_xcMSQvleZG9NHGva-40">
          <mxGeometry relative="1" as="geometry" />
        </mxCell>
        <mxCell id="BDH_xcMSQvleZG9NHGva-56" value="" style="sketch=0;points=[[0,0,0],[0.25,0,0],[0.5,0,0],[0.75,0,0],[1,0,0],[0,1,0],[0.25,1,0],[0.5,1,0],[0.75,1,0],[1,1,0],[0,0.25,0],[0,0.5,0],[0,0.75,0],[1,0.25,0],[1,0.5,0],[1,0.75,0]];outlineConnect=0;fontColor=#232F3E;fillColor=#E7157B;strokeColor=#ffffff;dashed=0;verticalLabelPosition=bottom;verticalAlign=top;align=center;html=1;fontSize=12;fontStyle=0;aspect=fixed;shape=mxgraph.aws4.resourceIcon;resIcon=mxgraph.aws4.sqs;" vertex="1" parent="1">
          <mxGeometry x="502" y="799" width="58" height="58" as="geometry" />
        </mxCell>
        <mxCell id="BDH_xcMSQvleZG9NHGva-58" value="" style="edgeStyle=none;orthogonalLoop=1;jettySize=auto;html=1;rounded=0;exitX=0.5;exitY=0;exitDx=0;exitDy=0;exitPerimeter=0;" edge="1" parent="1" source="BDH_xcMSQvleZG9NHGva-45">
          <mxGeometry width="100" relative="1" as="geometry">
            <mxPoint x="370" y="629" as="sourcePoint" />
            <mxPoint x="500" y="628.5" as="targetPoint" />
            <Array as="points">
              <mxPoint x="410" y="630" />
            </Array>
          </mxGeometry>
        </mxCell>
        <mxCell id="BDH_xcMSQvleZG9NHGva-62" value="" style="edgeStyle=none;orthogonalLoop=1;jettySize=auto;html=1;rounded=0;exitX=0.5;exitY=1;exitDx=0;exitDy=0;exitPerimeter=0;" edge="1" parent="1" source="BDH_xcMSQvleZG9NHGva-45">
          <mxGeometry width="100" relative="1" as="geometry">
            <mxPoint x="369" y="898.5" as="sourcePoint" />
            <mxPoint x="502" y="827" as="targetPoint" />
            <Array as="points">
              <mxPoint x="412" y="828.5" />
            </Array>
          </mxGeometry>
        </mxCell>
        <mxCell id="BDH_xcMSQvleZG9NHGva-63" value="SQS" style="text;html=1;align=center;verticalAlign=middle;resizable=0;points=[];autosize=1;strokeColor=none;fillColor=none;" vertex="1" parent="1">
          <mxGeometry x="506" y="570" width="50" height="30" as="geometry" />
        </mxCell>
        <mxCell id="BDH_xcMSQvleZG9NHGva-64" value="SQS" style="text;html=1;align=center;verticalAlign=middle;resizable=0;points=[];autosize=1;strokeColor=none;fillColor=none;" vertex="1" parent="1">
          <mxGeometry x="506" y="860" width="50" height="30" as="geometry" />
        </mxCell>
        <mxCell id="BDH_xcMSQvleZG9NHGva-65" value="SQS" style="text;html=1;align=center;verticalAlign=middle;resizable=0;points=[];autosize=1;strokeColor=none;fillColor=none;" vertex="1" parent="1">
          <mxGeometry x="450" y="739" width="50" height="30" as="geometry" />
        </mxCell>
        <mxCell id="BDH_xcMSQvleZG9NHGva-66" value="SNS uses Publish subscribe model and sends the events to Queue and it will be later processed by the respective services" style="text;html=1;align=center;verticalAlign=middle;resizable=0;points=[];autosize=1;strokeColor=none;fillColor=none;" vertex="1" parent="1">
          <mxGeometry x="110" y="920" width="680" height="30" as="geometry" />
        </mxCell>
      </root>
    </mxGraphModel>
  </diagram>
</mxfile>
